<?xml version="1.0" standalone="no"?>
<!DOCTYPE svg PUBLIC "-//W3C//DTD SVG 20010904//EN" "http://www.w3.org/TR/2001/REC-SVG-20010904/DTD/svg10.dtd">
<svg version="1.0" xmlns="http://www.w3.org/2000/svg"
    width="501.000000pt" height="498.000000pt" viewBox="0 0 501.000000 498.000000"
    preserveAspectRatio="xMidYMid meet">

    <g transform="translate(0.000000,498.000000) scale(0.100000,-0.100000)"
        fill="#E1E1DD" stroke="none">
        <path
            d="M2260 4535 c-291 -38 -571 -134 -806 -276 -488 -295 -842 -788 -953
-1329 -42 -207 -54 -365 -40 -560 31 -457 200 -864 501 -1215 299 -347 731
-591 1189 -670 705 -123 1432 135 1896 670 239 276 389 581 469 950 27 124 28
142 28 395 0 250 -1 272 -27 393 -120 564 -422 1013 -887 1320 -395 261 -912
382 -1370 322z m630 -100 c123 -26 332 -90 399 -123 42 -21 54 -45 20 -40 -13
2 -23 9 -22 15 2 7 -6 17 -17 23 -25 13 -132 9 -137 -5 -3 -11 85 -109 105
-116 7 -2 20 -27 30 -54 14 -40 28 -57 66 -82 53 -36 76 -41 76 -18 0 8 2 15
5 15 16 0 72 -29 84 -43 15 -19 31 -22 31 -6 0 15 -110 119 -126 119 -7 0 -26
16 -41 36 -15 19 -41 43 -58 51 -17 9 -24 18 -18 20 7 3 32 -11 55 -29 54 -43
94 -68 109 -68 11 0 9 15 -7 55 -8 19 -7 19 16 4 16 -10 27 -29 30 -50 4 -26
10 -35 28 -37 13 -2 27 -14 32 -27 5 -13 18 -28 28 -34 25 -13 38 -55 15 -47
-12 5 -14 1 -11 -18 4 -22 3 -24 -13 -16 -24 14 -32 -2 -34 -67 -1 -29 -5 -56
-8 -60 -4 -3 -7 -17 -7 -30 0 -13 -4 -23 -9 -23 -5 0 -7 -9 -4 -20 4 -14 0
-20 -11 -20 -25 0 -19 -20 7 -21 50 -1 117 -67 104 -102 -3 -9 -18 -19 -32
-22 -14 -3 -36 -7 -50 -10 -30 -6 -32 -30 -5 -65 11 -14 20 -35 20 -48 0 -12
9 -30 20 -39 11 -10 20 -24 20 -31 0 -11 8 -13 29 -9 21 5 34 0 50 -17 26 -28
26 -46 1 -96 -24 -47 -25 -63 -5 -94 17 -26 7 -70 -21 -90 -20 -15 -36 -76
-41 -160 -6 -93 4 -152 29 -176 20 -19 21 -23 9 -90 -15 -84 -5 -122 40 -145
15 -8 30 -23 34 -34 3 -11 17 -26 30 -35 14 -9 25 -25 25 -36 0 -21 59 -69
119 -98 32 -16 35 -16 82 11 27 15 60 27 72 27 16 0 35 14 56 41 18 22 49 48
68 57 34 16 36 16 53 -6 13 -16 27 -22 46 -20 23 3 29 -2 35 -27 5 -16 6 -58
3 -92 -6 -55 -3 -71 21 -124 27 -61 28 -72 26 -222 0 -22 -11 -59 -26 -84 -14
-25 -25 -55 -25 -67 0 -11 -9 -39 -19 -62 -10 -22 -21 -71 -25 -110 -9 -82
-35 -144 -105 -248 -295 -436 -763 -741 -1286 -837 -142 -26 -404 -35 -550
-20 -230 25 -438 84 -651 186 -457 218 -796 581 -989 1061 -42 103 -86 267
-111 409 -25 142 -26 460 -1 608 93 551 395 1026 849 1335 26 18 49 32 53 32
14 0 -31 -69 -74 -112 -150 -152 -160 -164 -172 -208 -10 -33 -34 -68 -92
-130 -55 -60 -91 -110 -120 -169 -37 -74 -42 -93 -43 -155 0 -39 -5 -87 -12
-106 -24 -71 -33 -230 -17 -285 7 -23 11 2 15 103 7 158 24 194 27 57 1 -52 9
-114 17 -137 14 -44 13 -69 -5 -144 -10 -37 -8 -44 20 -86 17 -25 51 -68 76
-96 37 -41 53 -51 88 -56 35 -5 49 -14 73 -46 16 -21 40 -42 54 -45 55 -14 87
-44 110 -103 25 -61 46 -92 64 -92 6 0 16 -10 21 -22 6 -13 20 -24 32 -26 12
-2 27 -10 33 -18 18 -20 38 -17 45 7 12 37 45 19 66 -36 27 -70 25 -139 -3
-167 -13 -13 -27 -30 -33 -39 -5 -9 -19 -29 -29 -44 -13 -18 -20 -46 -22 -84
-1 -31 -4 -63 -8 -72 -6 -15 10 -43 154 -274 48 -75 92 -120 150 -150 89 -45
88 -44 100 -195 6 -74 15 -159 22 -188 9 -40 8 -64 -2 -105 -11 -50 -10 -61
15 -147 14 -52 31 -102 36 -112 16 -29 122 -77 186 -84 54 -5 57 -4 39 10 -11
9 -25 16 -31 16 -7 0 -19 8 -28 18 -16 17 -15 20 4 41 18 19 19 25 8 32 -8 5
-17 9 -21 9 -17 0 -7 18 13 23 17 5 19 10 13 42 l-7 37 32 -7 c28 -6 31 -4 31
19 0 24 3 26 44 26 62 0 76 8 76 40 0 32 -11 43 -62 59 -21 7 -38 19 -38 27 0
11 6 11 27 3 16 -6 35 -17 43 -24 31 -28 69 -36 104 -21 50 21 184 158 188
193 3 24 14 34 77 66 40 20 86 37 102 37 34 0 66 38 109 133 20 45 30 82 30
116 0 40 4 51 19 56 10 3 25 20 32 37 7 17 30 51 51 75 55 63 50 143 -8 143
-15 0 -44 14 -66 31 -34 27 -45 31 -82 27 -25 -3 -53 0 -67 7 -12 7 -29 10
-37 8 -7 -3 -25 6 -40 20 -38 36 -78 50 -104 36 -16 -9 -26 -7 -47 9 -26 19
-41 51 -61 129 -9 36 -17 45 -62 67 -42 21 -61 25 -98 20 -44 -6 -46 -5 -92
45 -26 28 -54 51 -63 51 -9 0 -25 15 -35 33 -27 46 -60 59 -130 51 -55 -6 -61
-4 -126 35 -37 22 -75 41 -83 41 -26 -1 -134 -48 -143 -63 -4 -8 -16 -25 -27
-38 -18 -22 -20 -23 -38 -8 -29 25 -53 30 -89 17 -40 -14 -54 -5 -84 57 l-21
43 21 61 c11 33 20 63 20 65 0 15 -62 35 -88 30 -17 -4 -32 -1 -36 5 -4 6 -16
11 -27 11 -19 0 -19 1 -5 22 9 12 16 34 16 49 0 15 7 32 15 39 8 7 21 25 29
42 14 27 14 29 -8 38 -39 15 -64 1 -93 -51 -27 -51 -42 -59 -62 -35 -7 8 -22
17 -35 20 -26 6 -66 76 -66 112 0 30 48 184 65 211 24 37 92 66 134 59 20 -4
61 -8 91 -10 63 -3 100 -13 100 -27 0 -5 11 -9 23 -9 30 0 47 -35 47 -95 0
-33 5 -47 19 -54 10 -6 21 -7 25 -4 10 10 7 67 -6 124 l-12 52 43 38 c23 21
65 48 93 61 51 23 68 46 68 94 0 15 6 24 15 24 8 0 31 17 50 39 19 21 54 46
78 55 26 10 49 27 58 43 14 27 98 73 134 73 17 0 16 -3 -10 -25 -16 -13 -24
-24 -16 -25 26 0 143 45 148 58 8 19 -4 27 -21 13 -8 -7 -30 -11 -48 -9 -35 3
-45 20 -34 64 5 18 13 24 35 24 15 0 47 14 70 31 47 34 60 32 43 -6 -22 -49
-16 -63 31 -68 23 -3 51 -7 62 -9 16 -2 20 3 20 27 0 25 -5 32 -32 40 -44 15
-45 17 -29 63 17 46 21 40 -64 96 -25 16 -34 29 -33 45 3 25 -18 71 -41 90
-12 10 -18 8 -31 -13 -23 -35 -33 -33 -51 9 -16 39 -45 62 -92 71 -30 6 -32 5
-32 -23 0 -18 -9 -38 -25 -53 -20 -19 -22 -26 -13 -43 9 -18 5 -25 -30 -56
-25 -22 -47 -52 -54 -76 -16 -48 -47 -55 -62 -14 -7 22 -5 32 13 55 l21 27
-60 29 c-71 34 -95 64 -81 99 18 47 69 82 145 99 26 6 63 20 82 33 33 21 35
24 30 64 -7 53 0 72 30 84 13 4 24 13 24 19 0 17 -33 -5 -76 -50 -42 -44 -60
-48 -122 -26 -22 8 -49 13 -59 10 -10 -2 -25 0 -33 6 -13 9 -12 12 4 25 19 14
18 15 -9 41 -21 19 -34 24 -53 19 -24 -6 -24 -5 7 25 17 17 31 36 31 41 0 30
322 118 520 143 19 2 134 3 255 1 192 -3 236 -7 345 -30z m1078 -635 c-3 -21
-6 -20 -55 25 -53 47 -64 69 -40 78 21 8 99 -77 95 -103z m-132 -71 c11 -11
32 -19 47 -19 22 0 64 -36 54 -47 -4 -3 -102 34 -139 53 -35 18 -39 49 -5 39
12 -4 31 -16 43 -26z m202 -61 c34 -34 45 -40 52 -29 7 12 11 13 25 1 24 -20
62 -90 69 -129 l6 -34 -40 7 c-49 8 -59 -7 -36 -53 9 -16 16 -32 16 -35 0 -9
-51 1 -62 12 -6 6 -24 8 -40 5 -22 -4 -33 0 -48 17 -11 13 -20 31 -20 40 0 10
-12 26 -27 35 -25 17 -27 17 -42 -3 -9 -11 -38 -32 -66 -47 -32 -17 -55 -37
-65 -58 -12 -25 -21 -32 -45 -32 -39 0 -48 31 -12 40 31 8 41 57 21 97 -17 32
-18 64 -3 73 7 5 6 14 -4 28 -16 25 -12 47 8 47 8 0 21 10 29 21 14 20 17 21
38 7 13 -8 44 -22 71 -32 59 -22 77 -40 77 -76 0 -17 7 -30 16 -34 22 -8 30 0
17 16 -6 7 -13 32 -17 55 l-6 42 35 -20 c19 -12 35 -25 35 -30 0 -5 5 -9 10
-9 23 0 8 37 -27 66 -22 18 -33 35 -29 42 11 18 17 15 64 -30z" />
        <path d="M2790 4392 c0 -10 109 -56 116 -49 2 2 -7 14 -20 26 -25 24 -96 41
-96 23z" />
        <path
            d="M2535 4355 c-16 -8 -49 -14 -72 -15 -29 0 -46 -6 -55 -19 -8 -10 -24
-21 -36 -23 -32 -4 -27 -21 10 -34 19 -6 38 -23 48 -42 10 -18 29 -42 44 -53
32 -25 32 -36 5 -65 -19 -20 -20 -27 -10 -55 24 -69 76 -117 144 -133 26 -6
27 -5 27 33 0 22 5 43 10 46 6 4 8 15 5 25 -4 13 0 20 16 25 27 9 59 36 59 51
0 6 18 18 40 27 48 18 54 41 10 35 -22 -3 -30 0 -30 10 0 11 8 13 30 8 l31 -6
-38 45 c-20 25 -45 48 -55 51 -11 3 -30 23 -43 44 -18 28 -35 42 -62 49 -45
13 -40 13 -78 -4z" />
        <path
            d="M2254 4341 c-44 -11 -54 -19 -54 -45 0 -22 2 -23 47 -15 25 5 54 16
63 24 8 8 31 21 50 29 l35 15 -55 0 c-30 -1 -69 -4 -86 -8z" />
        <path
            d="M1897 4293 c-24 -10 -36 -21 -33 -29 3 -7 -4 -20 -16 -28 -32 -23
-32 -46 1 -46 15 0 32 -5 38 -11 9 -9 22 -3 52 22 44 36 52 59 23 59 -26 0
-33 10 -21 31 12 23 6 23 -44 2z" />
        <path
            d="M2111 4211 c-25 -12 -29 -19 -25 -38 5 -18 1 -28 -15 -39 -11 -8 -21
-22 -21 -30 0 -22 29 -17 54 11 23 25 49 31 80 19 25 -9 21 -68 -5 -86 -28
-18 -19 -48 20 -71 36 -21 52 -22 45 -2 -5 11 1 15 20 15 30 0 32 7 10 38 -12
18 -12 22 -2 22 8 0 19 -5 24 -10 13 -13 44 -2 44 15 0 7 -16 25 -35 39 -19
15 -35 36 -35 47 0 11 -11 24 -25 31 -13 6 -27 19 -30 28 -8 24 -65 30 -104
11z" />
        <path
            d="M2945 4089 c-16 -5 -39 -6 -52 -3 -29 8 -30 -10 -1 -30 26 -18 71
-21 99 -6 40 22 4 53 -46 39z" />
        <path
            d="M3260 3960 c0 -11 8 -23 18 -27 42 -15 110 -66 105 -79 -3 -8 1 -14
8 -14 7 0 10 -3 7 -6 -3 -3 4 -15 16 -27 21 -22 21 -22 48 -3 23 16 25 22 16
42 -6 13 -14 22 -17 22 -12 -3 -136 65 -144 78 -4 8 -15 14 -22 14 -8 0 -15 5
-15 10 0 6 -4 10 -10 10 -5 0 -10 -9 -10 -20z" />
        <path
            d="M3284 3867 c-9 -20 -8 -26 8 -36 10 -6 17 -16 15 -23 -3 -15 24 -21
43 -9 12 8 11 15 -6 48 -24 45 -45 52 -60 20z" />
        <path
            d="M1555 2810 c57 -15 123 -50 158 -85 25 -25 44 -35 66 -35 40 0 40 14
-1 31 -18 7 -46 25 -62 39 -36 31 -116 60 -160 59 l-31 -1 30 -8z" />
        <path
            d="M1850 2670 c15 -27 13 -30 -17 -30 -24 -1 -26 -2 -10 -11 11 -7 43
-8 83 -3 54 5 63 9 52 19 -7 7 -37 20 -66 29 -50 14 -52 14 -42 -4z" />
        <path d="M2068 2608 c17 -8 26 -8 34 0 9 9 4 12 -22 11 -33 0 -34 -1 -12 -11z" />
    </g>
</svg>